<svg width="100%" height="300px" version="1.1" viewBox="0 0 700 700" xmlns="http://www.w3.org/2000/svg" xmlns:xlink="http://www.w3.org/1999/xlink">
 <g>
  <path d="m580.22 454.72h-460.45c-24.766 0-44.801-20.16-44.801-44.801v-276.89c0-24.766 20.16-44.801 44.801-44.801h196.38c3.4844 0 6.2227 2.7383 6.2227 6.2227s-2.7383 6.2227-6.2227 6.2227h-196.38c-17.922 0-32.355 14.559-32.355 32.355v276.89c0 17.922 14.559 32.355 32.355 32.355h460.45c17.922 0 32.355-14.559 32.355-32.355v-276.89c0-17.922-14.559-32.355-32.355-32.355-3.4844 0-6.2227-2.7383-6.2227-6.2227s2.7383-6.2227 6.2227-6.2227c24.766 0 44.801 20.16 44.801 44.801v276.89c0 24.637-20.16 44.797-44.801 44.797z"/>
  <path d="m301.09 529.39c-0.99609 0-1.9922-0.25-2.8633-0.74609-2.9883-1.6172-4.2305-5.3516-2.6133-8.4609 12.07-22.898 12.07-44.801 0-69.066-1.4922-3.1094-0.25-6.8438 2.7383-8.3359 3.1094-1.4922 6.8438-0.25 8.3359 2.7383 13.812 27.625 13.812 54.008 0 80.391-1.2422 2.2344-3.3594 3.4805-5.5977 3.4805zm97.812 0c-2.2383 0-4.3555-1.2461-5.4766-3.3594-13.938-26.383-13.938-52.641 0-80.391 1.4922-3.1094 5.2266-4.3555 8.3359-2.7383 3.1094 1.4922 4.3555 5.2266 2.7383 8.3359-12.07 24.141-12.07 46.043 0 69.066 1.6172 2.9883 0.375 6.8438-2.6133 8.4609-0.99219 0.375-1.9883 0.625-2.9844 0.625z"/>
  <path d="m428.52 529.39h-157.05c-3.4844 0-6.2227-2.7383-6.2227-6.2227 0-3.4844 2.7383-6.2227 6.2227-6.2227h157.05c3.4844 0 6.2227 2.7383 6.2227 6.2227-0.003906 3.4844-2.7422 6.2227-6.2266 6.2227z"/>
  <path d="m448.19 158.17c-77.527 0-138.26-28-138.26-63.715s60.73-63.715 138.26-63.715 138.26 27.875 138.26 63.59-60.73 63.84-138.26 63.84zm0-115.11c-34.348 0-66.578 5.8477-90.719 16.301-22.277 9.707-34.969 22.398-34.969 34.969s12.816 25.262 34.969 34.969c24.266 10.578 56.496 16.301 90.719 16.301s66.578-5.8477 90.719-16.426c22.277-9.707 34.969-22.398 34.969-34.969s-12.816-25.262-34.969-34.969c-24.141-10.328-56.371-16.176-90.719-16.176z"/>
  <path d="m448.19 228.48c-77.527 0-138.26-28-138.26-63.715 0-3.4844 2.7383-6.2227 6.2227-6.2227s6.2227 2.7383 6.2227 6.2227c0 24.766 50.523 51.27 125.81 51.27s125.81-26.508 125.81-51.27c0-3.4844 2.7383-6.2227 6.2227-6.2227s6.2227 2.7383 6.2227 6.2227c0 35.715-60.73 63.715-138.26 63.715z"/>
  <path d="m448.19 298.91c-77.527 0-138.26-28-138.26-63.715 0-3.4844 2.7383-6.2227 6.2227-6.2227s6.2227 2.7383 6.2227 6.2227c0 24.766 50.523 51.27 125.81 51.27 75.289 0.003906 125.81-26.504 125.81-51.27 0-3.4844 2.7383-6.2227 6.2227-6.2227s6.2227 2.7383 6.2227 6.2227c0 35.715-60.73 63.715-138.26 63.715z"/>
  <path d="m316.15 241.42c-3.4844 0-6.2227-2.7383-6.2227-6.2227v-140.87c0-3.4844 2.7383-6.2227 6.2227-6.2227s6.2227 2.7383 6.2227 6.2227v140.87c0 3.3594-2.7383 6.2227-6.2227 6.2227z"/>
  <path d="m580.22 241.42c-3.4844 0-6.2227-2.7383-6.2227-6.2227v-140.87c0-3.4844 2.7383-6.2227 6.2227-6.2227s6.2227 2.7383 6.2227 6.2227v140.87c0 3.3594-2.8633 6.2227-6.2227 6.2227z"/>
  <path d="m170.3 287.71c-1.3672 0-2.7383-0.49609-3.9805-1.3672l-43.43-35.465c-1.4922-1.1211-2.2383-2.9883-2.2383-4.8516 0-1.8672 0.87109-3.6094 2.2383-4.8516l43.43-35.465c2.6133-2.1172 6.5938-1.7422 8.7109 0.87109 2.1172 2.6133 1.7422 6.5938-0.87109 8.7109l-37.582 30.738 37.582 30.738c2.6133 2.1172 3.1094 6.0977 0.87109 8.7109-1.1211 1.4844-2.9883 2.2305-4.7305 2.2305z"/>
  <path d="m248.7 287.71c-1.7422 0-3.6094-0.74609-4.8516-2.2383-2.1172-2.6133-1.7422-6.5938 0.87109-8.7109l37.457-30.738-37.461-30.738c-2.6133-2.1172-3.1094-6.0977-0.87109-8.7109 2.2383-2.6133 6.0977-3.1094 8.7109-0.87109l43.43 35.465c1.4922 1.1211 2.2383 2.9883 2.2383 4.8516 0 1.8672-0.87109 3.6094-2.2383 4.8516l-43.43 35.465c-0.99609 0.87891-2.4883 1.375-3.8555 1.375z"/>
  <path d="m198.43 293.56c-0.49609 0-1.1211-0.125-1.6172-0.25-3.3594-0.87109-5.3516-4.3555-4.3555-7.5898l22.152-82.754c0.87109-3.3594 4.3555-5.3516 7.5898-4.3555 3.3594 0.87109 5.3516 4.3555 4.3555 7.5898l-22.152 82.758c-0.74609 2.7383-3.2344 4.6016-5.9727 4.6016z"/>
  <path d="m230.91 347.95h-101.3c-3.4844 0-6.2227-2.7383-6.2227-6.2227s2.7383-6.2227 6.2227-6.2227h101.3c3.4844 0 6.2227 2.7383 6.2227 6.2227s-2.8633 6.2227-6.2227 6.2227z"/>
  <path d="m303.33 347.95h-36.836c-3.4844 0-6.2227-2.7383-6.2227-6.2227s2.7383-6.2227 6.2227-6.2227h36.836c3.4844 0 6.2227 2.7383 6.2227 6.2227s-2.7383 6.2227-6.2227 6.2227z"/>
  <path d="m408.12 347.95h-36.836c-3.4844 0-6.2227-2.7383-6.2227-6.2227s2.7383-6.2227 6.2227-6.2227h36.836c3.4844 0 6.2227 2.7383 6.2227 6.2227-0.003906 3.4844-2.8633 6.2227-6.2227 6.2227z"/>
  <path d="m572.63 347.95h-128.8c-3.4844 0-6.2227-2.7383-6.2227-6.2227s2.7383-6.2227 6.2227-6.2227h128.93c3.4844 0 6.2227 2.7383 6.2227 6.2227-0.003907 3.4844-2.8633 6.2227-6.3477 6.2227z"/>
  <path d="m202.29 393.74h-72.676c-3.4844 0-6.2227-2.7383-6.2227-6.2227s2.7383-6.2227 6.2227-6.2227h72.676c3.4844 0 6.2227 2.7383 6.2227 6.2227s-2.8633 6.2227-6.2227 6.2227z"/>
  <path d="m418.57 393.74h-177.71c-3.4844 0-6.2227-2.7383-6.2227-6.2227s2.7383-6.2227 6.2227-6.2227h177.71c3.4844 0 6.2227 2.7383 6.2227 6.2227s-2.7383 6.2227-6.2227 6.2227z"/>
  <path d="m497.22 393.74h-32.105c-3.4844 0-6.2227-2.7383-6.2227-6.2227s2.7383-6.2227 6.2227-6.2227h32.105c3.4844 0 6.2227 2.7383 6.2227 6.2227s-2.8633 6.2227-6.2227 6.2227z"/>
  <path d="m573.13 393.74h-32.105c-3.4844 0-6.2227-2.7383-6.2227-6.2227s2.7383-6.2227 6.2227-6.2227h32.105c3.4844 0 6.2227 2.7383 6.2227 6.2227s-2.8633 6.2227-6.2227 6.2227z"/>
  <path d="m276.7 161.53h-71.059c-3.4844 0-6.2227-2.7383-6.2227-6.2227 0-3.4844 2.7383-6.2227 6.2227-6.2227h71.059c3.4844 0 6.2227 2.7383 6.2227 6.2227 0 3.4883-2.7383 6.2227-6.2227 6.2227z"/>
  <path d="m166.94 161.53h-37.332c-3.4844 0-6.2227-2.7383-6.2227-6.2227 0-3.4844 2.7383-6.2227 6.2227-6.2227h37.457c3.4844 0 6.2227 2.7383 6.2227 6.2227 0 3.4883-2.8633 6.2227-6.3477 6.2227z"/>
 </g>
</svg>
