<svg width="700pt" height="700pt" version="1.1" viewBox="0 0 700 700" xmlns="http://www.w3.org/2000/svg" xmlns:xlink="http://www.w3.org/1999/xlink">
 <path transform="matrix(5.6 0 0 5.6 70 3.979e-14)" d="m61.287 34.86c0 3.5519-2.8788 6.4251-6.4321 6.4251-3.5512 0-6.4258-2.8732-6.4258-6.4251 0-3.5519 2.8753-6.43 6.4258-6.43 3.5533 0 6.4321 2.8781 6.4321 6.43zm0 0" fill="none" stroke="#000" stroke-linecap="round" stroke-linejoin="round" stroke-miterlimit="10"/>
 <path transform="matrix(5.6 0 0 5.6 70 3.979e-14)" d="m70.288 50.292c3.6503 0 6.9922-1.2737 9.6331-3.3901l-6.9671-11.149c-1.469-2.3431-3.8651-2.3431-5.3341 0l-6.9657 11.149c2.6416 2.115 5.9856 3.3901 9.6338 3.3901zm0 0" fill="none" stroke="#000" stroke-linecap="round" stroke-linejoin="round" stroke-miterlimit="10"/>
 <path transform="matrix(5.6 0 0 5.6 70 3.979e-14)" d="m29.999 10h60.001v10.287h-60.001zm0 0" fill="none" stroke="#000" stroke-linecap="round" stroke-linejoin="round" stroke-miterlimit="10"/>
 <path transform="matrix(5.6 0 0 5.6 70 3.979e-14)" d="m83.251 13.536h3.2143v3.215h-3.2143zm0 0" fill="none" stroke="#000" stroke-linecap="round" stroke-linejoin="round" stroke-miterlimit="10"/>
 <path transform="matrix(5.6 0 0 5.6 70 3.979e-14)" d="m76.821 13.536h3.2129v3.215h-3.2129zm0 0" fill="none" stroke="#000" stroke-linecap="round" stroke-linejoin="round" stroke-miterlimit="10"/>
 <path transform="matrix(5.6 0 0 5.6 70 3.979e-14)" d="m70.394 13.536h3.2129v3.215h-3.2129zm0 0" fill="none" stroke="#000" stroke-linecap="round" stroke-linejoin="round" stroke-miterlimit="10"/>
 <path transform="matrix(5.6 0 0 5.6 70 3.979e-14)" d="m33.541 13.536h25.715zm0 0" fill="none" stroke="#000" stroke-linecap="round" stroke-linejoin="round" stroke-miterlimit="10"/>
 <path transform="matrix(5.6 0 0 5.6 70 3.979e-14)" d="m33.541 16.751h17.143zm0 0" fill="none" stroke="#000" stroke-linecap="round" stroke-linejoin="round" stroke-miterlimit="10"/>
 <path transform="matrix(5.6 0 0 5.6 70 3.979e-14)" d="m14.998 66.249h25.002v3.7521h-25.002zm0 0" fill="none" stroke="#000" stroke-linecap="round" stroke-linejoin="round" stroke-miterlimit="10"/>
 <path transform="matrix(5.6 0 0 5.6 70 3.979e-14)" d="m45 66.249h15v3.7521h-15zm0 0" fill="none" stroke="#000" stroke-linecap="round" stroke-linejoin="round" stroke-miterlimit="10"/>
 <path transform="matrix(5.6 0 0 5.6 70 3.979e-14)" d="m19.997 73.749h5.0007v3.7521h-5.0007zm0 0" fill="none" stroke="#000" stroke-linecap="round" stroke-linejoin="round" stroke-miterlimit="10"/>
 <path transform="matrix(5.6 0 0 5.6 70 3.979e-14)" d="m29.999 73.749h25.001v3.7521h-25.001zm0 0" fill="none" stroke="#000" stroke-linecap="round" stroke-linejoin="round" stroke-miterlimit="10"/>
 <path transform="matrix(5.6 0 0 5.6 70 3.979e-14)" d="m19.997 81.249h20.001v3.7528h-20.001zm0 0" fill="none" stroke="#000" stroke-linecap="round" stroke-linejoin="round" stroke-miterlimit="10"/>
 <path transform="matrix(5.6 0 0 5.6 70 3.979e-14)" d="m45 81.249h25.001v3.7528h-25.001zm0 0" fill="none" stroke="#000" stroke-linecap="round" stroke-linejoin="round" stroke-miterlimit="10"/>
 <path transform="matrix(5.6 0 0 5.6 70 3.979e-14)" d="m10 61.25h64.999v28.75h-64.999zm0 0" fill="none" stroke="#000" stroke-linecap="round" stroke-linejoin="round" stroke-miterlimit="10"/>
 <path transform="matrix(5.6 0 0 5.6 70 3.979e-14)" d="m10 56.25h64.999v5h-64.999zm0 0" fill="none" stroke="#000" stroke-linecap="round" stroke-linejoin="round" stroke-miterlimit="10"/>
 <path transform="matrix(5.6 0 0 5.6 70 3.979e-14)" d="m29.999 20.287v35.965h45v13.749h15.001v-49.714zm0 0" fill="none" stroke="#000" stroke-linecap="round" stroke-linejoin="round" stroke-miterlimit="10"/>
 <path transform="matrix(5.6 0 0 5.6 70 3.979e-14)" d="m80.569 24.577-41.141-0.004185c-2.8411 0-5.1437 2.3061-5.1437 5.1472v26.532h40.714v9.4678h5.572c2.8397 0 5.1458-2.3047 5.1458-5.1472l-6.97e-4 -30.852c0.001395-2.8411-2.3047-5.143-5.1465-5.143zm0 0" fill="none" stroke="#000" stroke-linecap="round" stroke-linejoin="round" stroke-miterlimit="10"/>
 <path transform="matrix(5.6 0 0 5.6 70 3.979e-14)" d="m53.867 56.252-7.221-11.555c-1.1412-1.8227-3.0078-1.8227-4.1483 0l-7.221 11.555zm0 0" fill="none" stroke="#000" stroke-linecap="round" stroke-linejoin="round" stroke-miterlimit="10"/>
 <path transform="matrix(5.6 0 0 5.6 70 3.979e-14)" d="m72.954 35.753c-1.469-2.3431-3.8651-2.3431-5.3341 0l-12.811 20.499h20.19v9.4678h5.572c2.8397 0 5.1458-2.3047 5.1458-5.1472v-4.4001zm0 0" fill="none" stroke="#000" stroke-linecap="round" stroke-linejoin="round" stroke-miterlimit="10"/>
</svg>
