<svg width="500pt" height="500pt" version="1.1" viewBox="0 0 700 700" xmlns="http://www.w3.org/2000/svg" xmlns:xlink="http://www.w3.org/1999/xlink">
 <g>
  <path d="m365.9 342.95h-217.5c-6.0195-0.27734-11.688-2.9336-15.75-7.3867-4.0664-4.4531-6.1953-10.336-5.9219-16.359v-152.88c-0.22656-5.9922 1.9219-11.836 5.9844-16.25 4.0586-4.418 9.6992-7.0508 15.688-7.3281h262.3c6.0039 0.25 11.66 2.8633 15.742 7.2695 4.082 4.4062 6.2539 10.25 6.043 16.254v25.535c0.12891 1.0352-0.19141 2.0781-0.88281 2.8594-0.69141 0.78125-1.6875 1.2305-2.7305 1.2305s-2.0352-0.44922-2.7266-1.2305c-0.69141-0.78125-1.0117-1.8242-0.88281-2.8594v-25.48c0.21094-4.0898-1.1992-8.0938-3.9258-11.148-2.7266-3.0508-6.5508-4.9023-10.637-5.1484h-262.3c-4.0742 0.26172-7.8828 2.1172-10.598 5.168-2.7188 3.0508-4.1211 7.0508-3.9062 11.129v152.88c-0.35156 4.1641 0.98438 8.293 3.7148 11.453 2.7305 3.1641 6.6211 5.0898 10.789 5.3477h217.5c1.8242 0.22656 3.1914 1.7773 3.1914 3.6133 0 1.8359-1.3672 3.3828-3.1914 3.6094z"/>
  <path d="m130.37 303.52c-1.8203-0.22656-3.1875-1.7773-3.1875-3.6133s1.3672-3.3828 3.1875-3.6094l239.23-0.33594h0.003906c1.8203 0.22656 3.1875 1.7734 3.1875 3.6094 0 1.8359-1.3672 3.3867-3.1875 3.6133l-239.23 0.33594z"/>
  <path d="m296.74 163.41h-34.215c-1.0352 0.13281-2.0781-0.19141-2.8594-0.88281-0.78125-0.69141-1.2305-1.6836-1.2305-2.7266s0.44922-2.0391 1.2305-2.7305 1.8242-1.0117 2.8594-0.88281h34.215c1.0391-0.12891 2.0781 0.19141 2.8633 0.88281 0.78125 0.69141 1.2305 1.6875 1.2305 2.7305s-0.44922 2.0352-1.2305 2.7266c-0.78516 0.69141-1.8242 1.0156-2.8633 0.88281z"/>
  <path d="m352.41 415.86h-135.29v-8.6797c0.023438-3.5469 2.2617-6.6992 5.5977-7.8945l37.688-14.168c1.3516-0.51172 2.2422-1.8047 2.2422-3.25v-45.863h36.961c2.3164 0 4.1992 1.8789 4.1992 4.1992v40.602c0.003907 2.1211 1.3516 4.0117 3.3594 4.7031l38.641 13.105c3.9141 1.3203 6.5508 4.9922 6.5508 9.125zm-128.07-7.0547h120.85v-1.0664c0.007812-1.0312-0.64453-1.957-1.625-2.293l-38.359-13.441c-4.9414-1.5391-8.375-6.0273-8.5664-11.199v-37.465h-26.992v38.527c0.042969 4.4844-2.7031 8.5234-6.8867 10.137l-37.633 14.055c-0.46484 0.18359-0.77344 0.625-0.78516 1.1211z"/>
  <path d="m504.11 416.25h-108.75c-7.5703-0.011719-14.824-3.0273-20.18-8.3789-5.3516-5.3516-8.3633-12.609-8.3789-20.18v-169.29c0.015625-7.5703 3.0273-14.824 8.3789-20.176 5.3555-5.3555 12.609-8.3672 20.18-8.3828h108.75c7.5703 0.015625 14.824 3.0273 20.176 8.3828 5.3555 5.3516 8.3672 12.605 8.3828 20.176v28c0 2.0586-1.668 3.7266-3.7227 3.7266-2.0586 0-3.7266-1.668-3.7266-3.7266v-28c0-5.5977-2.2227-10.969-6.1836-14.926-3.957-3.9609-9.3281-6.1836-14.926-6.1836h-108.75c-5.5977 0-10.969 2.2227-14.93 6.1836-3.957 3.957-6.1836 9.3281-6.1836 14.926v169.29c0 5.6016 2.2266 10.969 6.1836 14.93 3.9609 3.957 9.332 6.1836 14.93 6.1836h108.75c2.0547 0 3.7227 1.668 3.7227 3.7227 0 2.0586-1.668 3.7227-3.7227 3.7227z"/>
  <path d="m454.95 392.34c0 3.0625-2.4844 5.543-5.5469 5.543-3.0586 0-5.543-2.4805-5.543-5.543s2.4844-5.543 5.543-5.543c3.0625 0 5.5469 2.4805 5.5469 5.543"/>
  <path d="m551.6 417.54h-41.496c-5.8047-0.015625-11.363-2.3242-15.469-6.4297-4.1016-4.1016-6.4141-9.6641-6.4297-15.465v-133.67c0.015625-5.8047 2.3281-11.363 6.4297-15.469 4.1055-4.1016 9.6641-6.4141 15.469-6.4297h41.496c5.8008 0.015626 11.363 2.3281 15.465 6.4297 4.1016 4.1055 6.4141 9.6641 6.4297 15.469v133.67c-0.015625 5.8008-2.3281 11.363-6.4297 15.465-4.1016 4.1055-9.6641 6.4141-15.465 6.4297zm-41.496-169.62c-7.7656 0-14.059 6.2969-14.059 14.059v133.67c0 7.7617 6.293 14.055 14.059 14.055h41.496c7.7617 0 14.055-6.293 14.055-14.055v-133.67c0-3.7305-1.4805-7.3047-4.1172-9.9414-2.6367-2.6328-6.2109-4.1172-9.9375-4.1172z"/>
  <path d="m544.27 254.91h-26.715c-3.8789 0-7.0273-3.1445-7.0273-7.0273 0-3.8789 3.1484-7.0273 7.0273-7.0273h26.715c3.8789 0 7.0273 3.1484 7.0273 7.0273 0 3.8828-3.1484 7.0273-7.0273 7.0273z"/>
  <path d="m291.2 320.43c0 3.5547-2.8828 6.4375-6.4375 6.4375-3.5586 0-6.4414-2.8828-6.4414-6.4375 0-3.5586 2.8828-6.4414 6.4414-6.4414 3.5547 0 6.4375 2.8828 6.4375 6.4414"/>
 </g>
</svg>
